{
  "accessors": [
    {
      "bufferView": 2,
      "componentType": 5126,
      "count": 32,
      "max": [
        2.6150290966033936,
        3.000349998474121,
        -0.2176789939403534
      ],
      "min": [
        -2.6150290966033936,
        -3.504833936691284,
        -1.058480978012085
      ],
      "type": "VEC3"
    },
    {
      "bufferView": 2,
      "byteOffset": 384,
      "componentType": 5126,
      "count": 32,
      "max": [
        1.0,
        1.0,
        0.9998534917831421
      ],
      "min": [
        -1.0,
        -1.0,
        -1.0
      ],
      "type": "VEC3"
    },
    {
      "bufferView": 0,
      "componentType": 5125,
      "count": 60,
      "type": "SCALAR"
    },
    {
      "bufferView": 2,
      "byteOffset": 768,
      "componentType": 5126,
      "count": 572,
      "max": [
        2.0263540744781494,
        2.5141329765319824,
        -0.43595799803733826
      ],
      "min": [
        -2.132611036300659,
        -2.901962995529175,
        -0.43595901131629944
      ],
      "type": "VEC3"
    },
    {
      "bufferView": 2,
      "byteOffset": 7632,
      "componentType": 5126,
      "count": 572,
      "max": [
        0.0031213301699608564,
        0.0006231829756870866,
        -0.999911904335022
      ],
      "min": [
        -0.013271357864141464,
        -0.0009584898944012821,
        -1.0
      ],
      "type": "VEC3"
    },
    {
      "bufferView": 1,
      "componentType": 5126,
      "count": 572,
      "max": [
        0.0,
        0.0
      ],
      "min": [
        0.0,
        0.0
      ],
      "type": "VEC2"
    },
    {
      "bufferView": 0,
      "byteOffset": 240,
      "componentType": 5125,
      "count": 1710,
      "type": "SCALAR"
    },
    {
      "bufferView": 2,
      "byteOffset": 14496,
      "componentType": 5126,
      "count": 20229,
      "max": [
        2.569927930831909,
        4.484140872955322,
        8.394893646240234
      ],
      "min": [
        -2.6695339679718018,
        -4.700953006744385,
        -0.43595901131629944
      ],
      "type": "VEC3"
    },
    {
      "bufferView": 2,
      "byteOffset": 257244,
      "componentType": 5126,
      "count": 20229,
      "max": [
        0.9999643564224243,
        0.999962329864502,
        0.9999951124191284
      ],
      "min": [
        -0.999993085861206,
        -0.9999956488609314,
        -0.9999241828918457
      ],
      "type": "VEC3"
    },
    {
      "bufferView": 1,
      "byteOffset": 4576,
      "componentType": 5126,
      "count": 20229,
      "max": [
        0.9908990263938904,
        0.998399019241333
      ],
      "min": [
        0.0039059999398887157,
        0.0039059999398887157
      ],
      "type": "VEC2"
    },
    {
      "bufferView": 0,
      "byteOffset": 7080,
      "componentType": 5125,
      "count": 105330,
      "type": "SCALAR"
    }
  ],
  "asset": {
    "extras": {
      "author": "Horniman Museum (https://sketchfab.com/HornimanMuseum)",
      "license": "CC-BY-NC-ND-4.0 (http://creativecommons.org/licenses/by-nc-nd/4.0/)",
      "source": "https://sketchfab.com/3d-models/dodo-model-ad10226b4f7a451ea23920a556c72a90",
      "title": "Dodo Model"
    },
    "generator": "Sketchfab-12.65.0",
    "version": "2.0"
  },
  "bufferViews": [
    {
      "buffer": 0,
      "byteLength": 428400,
      "name": "floatBufferViews",
      "target": 34963
    },
    {
      "buffer": 0,
      "byteLength": 166408,
      "byteOffset": 428400,
      "byteStride": 8,
      "name": "floatBufferViews",
      "target": 34962
    },
    {
      "buffer": 0,
      "byteLength": 499992,
      "byteOffset": 594808,
      "byteStride": 12,
      "name": "floatBufferViews",
      "target": 34962
    }
  ],
  "buffers": [
    {
      "byteLength": 1094800,
      "uri": "scene.bin"
    }
  ],
  "images": [
    {
      "uri": "textures/dodo_baseColor.jpeg"
    },
    {
      "uri": "textures/dodo_dodo.jpg_metallicRoughness.png"
    }
  ],
  "materials": [
    {
      "doubleSided": true,
      "name": "Material",
      "pbrMetallicRoughness": {
        "baseColorFactor": [
          0.10439499030685982,
          0.0380264173966608,
          0.0,
          1.0
        ],
        "metallicFactor": 0.75,
        "roughnessFactor": 0.7000000000000001
      }
    },
    {
      "doubleSided": true,
      "name": "dodo",
      "pbrMetallicRoughness": {
        "baseColorTexture": {
          "index": 0
        },
        "metallicFactor": 0.0,
        "roughnessFactor": 0.2
      }
    },
    {
      "doubleSided": true,
      "emissiveFactor": [
        0.63,
        0.63,
        0.63
      ],
      "emissiveTexture": {
        "index": 0
      },
      "name": "dodo_dodo.jpg",
      "pbrMetallicRoughness": {
        "baseColorTexture": {
          "index": 0
        },
        "metallicFactor": 0.0,
        "metallicRoughnessTexture": {
          "index": 1
        }
      }
    }
  ],
  "meshes": [
    {
      "name": "Object_0",
      "primitives": [
        {
          "attributes": {
            "NORMAL": 1,
            "POSITION": 0
          },
          "indices": 2,
          "material": 0,
          "mode": 4
        }
      ]
    },
    {
      "name": "Object_1",
      "primitives": [
        {
          "attributes": {
            "NORMAL": 4,
            "POSITION": 3,
            "TEXCOORD_0": 5
          },
          "indices": 6,
          "material": 1,
          "mode": 4
        }
      ]
    },
    {
      "name": "Object_2",
      "primitives": [
        {
          "attributes": {
            "NORMAL": 8,
            "POSITION": 7,
            "TEXCOORD_0": 9
          },
          "indices": 10,
          "material": 2,
          "mode": 4
        }
      ]
    }
  ],
  "nodes": [
    {
      "children": [
        1
      ],
      "matrix": [
        0.1111111119389534,
        0.0,
        0.0,
        0.0,
        0.0,
        2.4671622953265837e-17,
        -0.1111111119389534,
        0.0,
        0.0,
        0.1111111119389534,
        2.4671622953265837e-17,
        0.0,
        0.0,
        0.0,
        0.0,
        1.0
      ],
      "name": "Sketchfab_model"
    },
    {
      "children": [
        2,
        3,
        4
      ],
      "name": "dodo-edit-base.obj.cleaner"
    },
    {
      "mesh": 0,
      "name": "Object_2"
    },
    {
      "mesh": 1,
      "name": "Object_3"
    },
    {
      "mesh": 2,
      "name": "Object_4"
    }
  ],
  "samplers": [
    {
      "magFilter": 9729,
      "minFilter": 9987,
      "wrapS": 10497,
      "wrapT": 10497
    }
  ],
  "scene": 0,
  "scenes": [
    {
      "name": "Sketchfab_Scene",
      "nodes": [
        0
      ]
    }
  ],
  "textures": [
    {
      "sampler": 0,
      "source": 0
    },
    {
      "sampler": 0,
      "source": 1
    }
  ]
}
