{
  "accessors": [
    {
      "bufferView": 2,
      "componentType": 5126,
      "count": 65532,
      "max": [
        1.0,
        1.0,
        0.18836599588394165
      ],
      "min": [
        0.0,
        0.2890625,
        0.0013983979588374496
      ],
      "type": "VEC3"
    },
    {
      "bufferView": 2,
      "byteOffset": 786384,
      "componentType": 5126,
      "count": 65532,
      "max": [
        0.9448138475418091,
        0.9342443943023682,
        1.0
      ],
      "min": [
        -0.9490212798118591,
        -0.9427703022956848,
        0.28299927711486816
      ],
      "type": "VEC3"
    },
    {
      "bufferView": 3,
      "componentType": 5126,
      "count": 65532,
      "max": [
        1.0,
        1.1879479643539526e-05,
        0.9578586220741272,
        1.0
      ],
      "min": [
        0.2872403860092163,
        -1.2232728295202833e-05,
        -0.9460954666137695,
        1.0
      ],
      "type": "VEC4"
    },
    {
      "bufferView": 1,
      "componentType": 5126,
      "count": 65532,
      "max": [
        1.0,
        1.0
      ],
      "min": [
        0.0,
        0.2890625
      ],
      "type": "VEC2"
    },
    {
      "bufferView": 0,
      "componentType": 5125,
      "count": 372276,
      "type": "SCALAR"
    },
    {
      "bufferView": 2,
      "byteOffset": 1572768,
      "componentType": 5126,
      "count": 65532,
      "max": [
        1.0,
        0.3535155951976776,
        0.11575660109519958
      ],
      "min": [
        0.0,
        -0.0,
        0.0008456503855995834
      ],
      "type": "VEC3"
    },
    {
      "bufferView": 2,
      "byteOffset": 2359152,
      "componentType": 5126,
      "count": 65532,
      "max": [
        0.930431067943573,
        0.8251808285713196,
        1.0
      ],
      "min": [
        -0.9192125797271729,
        -0.9328450560569763,
        0.3115599751472473
      ],
      "type": "VEC3"
    },
    {
      "bufferView": 3,
      "byteOffset": 1048512,
      "componentType": 5126,
      "count": 65532,
      "max": [
        1.0,
        9.69682150753215e-06,
        0.93503737449646,
        1.0
      ],
      "min": [
        0.35454925894737244,
        -9.170184966933448e-06,
        -0.9318593144416809,
        1.0
      ],
      "type": "VEC4"
    },
    {
      "bufferView": 1,
      "byteOffset": 524256,
      "componentType": 5126,
      "count": 65532,
      "max": [
        1.0,
        0.3535155951976776
      ],
      "min": [
        0.0,
        0.0
      ],
      "type": "VEC2"
    },
    {
      "bufferView": 0,
      "byteOffset": 1489104,
      "componentType": 5125,
      "count": 377778,
      "type": "SCALAR"
    },
    {
      "bufferView": 2,
      "byteOffset": 3145536,
      "componentType": 5126,
      "count": 65532,
      "max": [
        1.0,
        0.9101563096046448,
        0.15964819490909576
      ],
      "min": [
        0.001953125,
        0.11914060264825821,
        0.0013983979588374496
      ],
      "type": "VEC3"
    },
    {
      "bufferView": 2,
      "byteOffset": 3931920,
      "componentType": 5126,
      "count": 65532,
      "max": [
        0.8904424905776978,
        0.9377372860908508,
        1.0
      ],
      "min": [
        -0.8936899900436401,
        -0.9342148303985596,
        0.31763049960136414
      ],
      "type": "VEC3"
    },
    {
      "bufferView": 3,
      "byteOffset": 2097024,
      "componentType": 5126,
      "count": 65532,
      "max": [
        1.0,
        9.291931746702176e-06,
        0.9075155854225159,
        1.0
      ],
      "min": [
        0.4142039120197296,
        -1.0595176718197763e-05,
        -0.9101841449737549,
        1.0
      ],
      "type": "VEC4"
    },
    {
      "bufferView": 1,
      "byteOffset": 1048512,
      "componentType": 5126,
      "count": 65532,
      "max": [
        1.0,
        0.9101563096046448
      ],
      "min": [
        0.001953125,
        0.11914060264825821
      ],
      "type": "VEC2"
    },
    {
      "bufferView": 0,
      "byteOffset": 3000216,
      "componentType": 5125,
      "count": 356745,
      "type": "SCALAR"
    },
    {
      "bufferView": 2,
      "byteOffset": 4718304,
      "componentType": 5126,
      "count": 65532,
      "max": [
        1.0,
        0.861328125,
        0.14210979640483856
      ],
      "min": [
        0.021484380587935448,
        0.544921875,
        0.004104355815798044
      ],
      "type": "VEC3"
    },
    {
      "bufferView": 2,
      "byteOffset": 5504688,
      "componentType": 5126,
      "count": 65532,
      "max": [
        0.9470086693763733,
        0.8984994888305664,
        0.9999998807907104
      ],
      "min": [
        -0.946847677230835,
        -0.8477689027786255,
        0.24455063045024872
      ],
      "type": "VEC3"
    },
    {
      "bufferView": 3,
      "byteOffset": 3145536,
      "componentType": 5126,
      "count": 65532,
      "max": [
        1.0,
        1.1626817467913497e-05,
        0.9468705654144287,
        1.0
      ],
      "min": [
        0.25003260374069214,
        -1.1183499736944214e-05,
        -0.9682374596595764,
        1.0
      ],
      "type": "VEC4"
    },
    {
      "bufferView": 1,
      "byteOffset": 1572768,
      "componentType": 5126,
      "count": 65532,
      "max": [
        1.0,
        0.861328125
      ],
      "min": [
        0.021484380587935448,
        0.544921875
      ],
      "type": "VEC2"
    },
    {
      "bufferView": 0,
      "byteOffset": 4427196,
      "componentType": 5125,
      "count": 372681,
      "type": "SCALAR"
    },
    {
      "bufferView": 2,
      "byteOffset": 6291072,
      "componentType": 5126,
      "count": 18445,
      "max": [
        1.0,
        0.9921875,
        0.07294724881649017
      ],
      "min": [
        0.009765625,
        0.84375,
        0.010865289717912674
      ],
      "type": "VEC3"
    },
    {
      "bufferView": 2,
      "byteOffset": 6512412,
      "componentType": 5126,
      "count": 18445,
      "max": [
        0.7844061851501465,
        0.8362770080566406,
        0.9999997615814209
      ],
      "min": [
        -0.8733401298522949,
        -0.8765029907226563,
        0.4249725341796875
      ],
      "type": "VEC3"
    },
    {
      "bufferView": 3,
      "byteOffset": 4194048,
      "componentType": 5126,
      "count": 18445,
      "max": [
        1.0,
        6.743101948814001e-06,
        0.8991928100585938,
        1.0
      ],
      "min": [
        0.43755263090133667,
        -8.164762220985722e-06,
        -0.8449862003326416,
        1.0
      ],
      "type": "VEC4"
    },
    {
      "bufferView": 1,
      "byteOffset": 2097024,
      "componentType": 5126,
      "count": 18445,
      "max": [
        1.0,
        0.9921875
      ],
      "min": [
        0.009765625,
        0.84375
      ],
      "type": "VEC2"
    },
    {
      "bufferView": 0,
      "byteOffset": 5917920,
      "componentType": 5125,
      "count": 93384,
      "type": "SCALAR"
    }
  ],
  "asset": {
    "extras": {
      "author": "solararchitect (https://sketchfab.com/solararchitect)",
      "license": "CC-BY-4.0 (http://creativecommons.org/licenses/by/4.0/)",
      "source": "https://sketchfab.com/3d-models/hero-mountain-01-982e4185c20e478c90f7499cd36bf179",
      "title": "Hero Mountain 01"
    },
    "generator": "Sketchfab-12.66.0",
    "version": "2.0"
  },
  "bufferViews": [
    {
      "buffer": 0,
      "byteLength": 6291456,
      "name": "floatBufferViews",
      "target": 34963
    },
    {
      "buffer": 0,
      "byteLength": 2244584,
      "byteOffset": 6291456,
      "byteStride": 8,
      "name": "floatBufferViews",
      "target": 34962
    },
    {
      "buffer": 0,
      "byteLength": 6733752,
      "byteOffset": 8536040,
      "byteStride": 12,
      "name": "floatBufferViews",
      "target": 34962
    },
    {
      "buffer": 0,
      "byteLength": 4489168,
      "byteOffset": 15269792,
      "byteStride": 16,
      "name": "floatBufferViews",
      "target": 34962
    }
  ],
  "buffers": [
    {
      "byteLength": 19758960,
      "uri": "scene.bin"
    }
  ],
  "images": [
    {
      "uri": "textures/material_0_baseColor.jpeg"
    },
    {
      "uri": "textures/material_0_metallicRoughness.png"
    },
    {
      "uri": "textures/material_0_normal.png"
    }
  ],
  "materials": [
    {
      "doubleSided": true,
      "name": "material_0",
      "normalTexture": {
        "index": 2
      },
      "pbrMetallicRoughness": {
        "baseColorTexture": {
          "index": 0
        },
        "metallicFactor": 0.0,
        "metallicRoughnessTexture": {
          "index": 1
        }
      }
    }
  ],
  "meshes": [
    {
      "name": "Object_0",
      "primitives": [
        {
          "attributes": {
            "NORMAL": 1,
            "POSITION": 0,
            "TANGENT": 2,
            "TEXCOORD_0": 3
          },
          "indices": 4,
          "material": 0,
          "mode": 4
        }
      ]
    },
    {
      "name": "Object_1",
      "primitives": [
        {
          "attributes": {
            "NORMAL": 6,
            "POSITION": 5,
            "TANGENT": 7,
            "TEXCOORD_0": 8
          },
          "indices": 9,
          "material": 0,
          "mode": 4
        }
      ]
    },
    {
      "name": "Object_2",
      "primitives": [
        {
          "attributes": {
            "NORMAL": 11,
            "POSITION": 10,
            "TANGENT": 12,
            "TEXCOORD_0": 13
          },
          "indices": 14,
          "material": 0,
          "mode": 4
        }
      ]
    },
    {
      "name": "Object_3",
      "primitives": [
        {
          "attributes": {
            "NORMAL": 16,
            "POSITION": 15,
            "TANGENT": 17,
            "TEXCOORD_0": 18
          },
          "indices": 19,
          "material": 0,
          "mode": 4
        }
      ]
    },
    {
      "name": "Object_4",
      "primitives": [
        {
          "attributes": {
            "NORMAL": 21,
            "POSITION": 20,
            "TANGENT": 22,
            "TEXCOORD_0": 23
          },
          "indices": 24,
          "material": 0,
          "mode": 4
        }
      ]
    }
  ],
  "nodes": [
    {
      "children": [
        1
      ],
      "matrix": [
        1.0,
        0.0,
        0.0,
        0.0,
        0.0,
        2.220446049250313e-16,
        -1.0,
        0.0,
        0.0,
        1.0,
        2.220446049250313e-16,
        0.0,
        0.0,
        0.0,
        0.0,
        1.0
      ],
      "name": "Sketchfab_model"
    },
    {
      "children": [
        2,
        3,
        4,
        5,
        6
      ],
      "name": "mesh_hero_mountain_01_05K_OBJ.obj.cleaner.materialmerger.gles"
    },
    {
      "mesh": 0,
      "name": "Object_2"
    },
    {
      "mesh": 1,
      "name": "Object_3"
    },
    {
      "mesh": 2,
      "name": "Object_4"
    },
    {
      "mesh": 3,
      "name": "Object_5"
    },
    {
      "mesh": 4,
      "name": "Object_6"
    }
  ],
  "samplers": [
    {
      "magFilter": 9729,
      "minFilter": 9987,
      "wrapS": 10497,
      "wrapT": 10497
    }
  ],
  "scene": 0,
  "scenes": [
    {
      "name": "Sketchfab_Scene",
      "nodes": [
        0
      ]
    }
  ],
  "textures": [
    {
      "sampler": 0,
      "source": 0
    },
    {
      "sampler": 0,
      "source": 1
    },
    {
      "sampler": 0,
      "source": 2
    }
  ]
}
